<svg xmlns="http://www.w3.org/2000/svg" viewBox="0 0 394.64 112.16"><defs><style>.cls-1{fill:#fefe00;}</style></defs><title>Asset 3</title><g id="Layer_2" data-name="Layer 2"><g id="Layer_1-2" data-name="Layer 1"><path class="cls-1" d="M0,55.31c3.82-.61,7.64-3.69,11.48-3.75C50.6,51,89.7,50.66,128.79,50c5.23-.08,10.45-1.52,15.66-2.42,7.33-1.26,13.91-4.63,21.71,1.7,6.67,5.42,11.38,1.3,15.4-12.42-4.5-.65-8.81-1.7-13.16-1.82-10-.28-19.93-.55-29.86,0-29.9,1.55-59.76,4.6-89.65,4.78-16.14.09-31.3-4.5-48.17-9.63,4.48-1,8-2.85,12.44-2.87,53-.2,106-.44,159,.1,12,.13,20.55-1.58,21.07-16.37-.49-.26-1.94-1.64-3.42-1.66-17.41-.27-35.87-4-52,.52-18.82,5.34-37.74,7.77-55.55,4.4C57.54,9.59,33,10.83,8.4,9.49c-2-.11-3.82-3-5.73-4.56A40.47,40.47,0,0,1,8.35,1.09C9.52.54,11.15,1,12.57,1q121.11,0,242.21.07c18.91,0,31.14,8.84,34.59,23.52,2.78,11.81-.87,20.88-10.32,27.91-13.42,10-29.11,14.55-45.12,12.38-22.11-3-34.3,5.37-39.81,26.32-2.71,10.33-9.25,14.52-21,14-20.08-1-40.22-1.33-60.23,4.22a63.85,63.85,0,0,1-31.67.39c-22.47-5.8-45.06-4.7-67.71-4.89-2.85,0-5.77.38-8.51-.17-1.73-.34-3.18-2.07-4.76-3.18,1.61-1.54,3-3.86,4.88-4.44,2.62-.8,5.63-.32,8.48-.32,43,0,86.07-.26,129.1.19,9.66.1,16-2,17.08-13.53-14.12-.05-29.46,0-44.43,0,2.38-5.13,6.18-8.6,13.69-7.77,6.32.69,12.79.19,19.19,0,19.13-.44,19.84-1.06,25-20.88-21.79-5.62-54-2.68-60.39,6.79h48.79c0,1.09.05,2.18.08,3.28-15.2,0-30.82,2.18-45.47-.65-13.28-2.56-27-8.67-39.53-4.19-13.44,4.81-51.44.06-64.49-.53M216,48.21c14.76.74,29.11,5.59,40.54-6.4,2.81-2.94,4.64-9.62,3.22-13.06-1.65-4-7-8.3-11.37-9-16.3-2.79-19-.89-26,13.85C220.35,37.89,218.57,42.37,216,48.21Z"/><path class="cls-1" d="M300.18,75c5.54,16.08,18.4,22.6,30.28,14.71,4-2.64,7.23-8.81,7.6-13.62.27-3.49-4-8.39-7.56-10.88C323,59.92,314,56.7,306.92,51c-13.35-10.73-12.66-27.45.57-38.23,19.78-16.11,54-17.15,74.81-2.19,2.29,1.65,5,3.34,6.25,5.68,2.48,4.47,4.11,9.41,6.09,14.16-4.23.72-8.44,2-12.68,2-8.79.21-17.77,2.26-23.82-8.34-1.77-3.11-11.41-4.28-16-2.52S332,29.92,332,34.37s5.78,9.63,10.2,12.92c5,3.73,11.41,5.57,17.08,8.45,17.22,8.74,19.91,26.91,6,40.25-22.18,21.36-70,21.78-91.85-.06-3.72-3.72-4.19-11.27-4.57-17.15-.06-1,7.94-3.16,12.34-3.63C287.24,74.51,293.33,75,300.18,75Z"/><path class="cls-1" d="M74.81,84.88c-24.73-1.38-42.47-2.76-67.2-4.14C6.35,80.3,1.35,78.3,0,77.81c2.35-.51,5.33-2.37,8-2.38,18.75-.07,37.53-.16,56.26.62,4,.16,7.83,3.87,11.74,6Z"/></g></g></svg>