<svg xmlns="http://www.w3.org/2000/svg" viewBox="0 0 926.35 155.64"><defs><style>.cls-1{fill:#fefe00;}</style></defs><title>Asset 2</title><g id="Layer_2" data-name="Layer 2"><g id="Layer_1-2" data-name="Layer 1"><path class="cls-1" d="M0,64.57c3.82-.61,7.64-3.69,11.48-3.75,39.09-.58,78.19-.9,117.28-1.55,5.23-.08,10.45-1.52,15.66-2.42,7.33-1.26,13.91-4.63,21.71,1.7,6.67,5.42,11.38,1.3,15.4-12.42-4.5-.65-8.81-1.7-13.16-1.82-10-.28-19.93-.55-29.86,0-29.9,1.54-59.76,4.6-89.65,4.77-16.14.09-31.3-4.49-48.17-9.63,4.48-1,8-2.85,12.44-2.87,53-.2,106-.44,159,.1,12,.13,20.55-1.58,21.07-16.37-.49-.26-1.94-1.64-3.42-1.66-17.41-.27-35.87-4-52,.52-18.82,5.34-37.74,7.77-55.55,4.4C57.54,18.85,33,20.09,8.4,18.75c-2-.11-3.82-3-5.73-4.56a40.47,40.47,0,0,1,5.68-3.84c1.17-.55,2.8-.08,4.22-.08q121.11,0,242.21.07c18.91,0,31.14,8.84,34.59,23.52,2.78,11.81-.87,20.88-10.32,27.91-13.42,10-29.11,14.55-45.12,12.38-22.11-3-34.3,5.37-39.81,26.32-2.71,10.33-9.25,14.52-21,14-20.08-1-40.22-1.33-60.23,4.22a63.85,63.85,0,0,1-31.67.39c-22.47-5.8-45.06-4.7-67.71-4.89-2.85,0-5.77.38-8.51-.17-1.73-.34-3.18-2.07-4.76-3.18,1.61-1.54,3-3.86,4.88-4.44,2.62-.8,5.63-.32,8.48-.32,43,0,86.07-.26,129.1.19,9.66.1,16-2,17.08-13.53-14.12,0-29.46,0-44.43,0,2.38-5.13,6.18-8.6,13.69-7.77,6.32.69,12.79.19,19.19,0,19.13-.44,19.84-1.06,25-20.88-21.79-5.62-54-2.68-60.39,6.79h48.79c0,1.09.05,2.18.08,3.28-15.2,0-30.82,2.18-45.47-.65-13.28-2.56-27-8.67-39.53-4.19-13.44,4.81-51.44.06-64.49-.53M216,57.47c14.76.74,29.11,5.59,40.54-6.4,2.81-2.94,4.64-9.62,3.22-13.06-1.65-4-7-8.3-11.37-9-16.3-2.79-19-.89-26,13.85C220.35,47.15,218.57,51.63,216,57.47Z"/><path class="cls-1" d="M300.18,84.25c5.54,16.08,18.4,22.6,30.28,14.71,4-2.64,7.23-8.81,7.6-13.62.27-3.49-4-8.39-7.56-10.88C323,69.18,314,66,306.92,60.27c-13.35-10.73-12.66-27.45.57-38.23,19.78-16.11,54-17.15,74.81-2.19,2.29,1.65,5,3.34,6.25,5.68,2.48,4.47,4.11,9.41,6.09,14.16-4.23.72-8.44,2-12.68,2.05-8.79.21-17.77,2.26-23.82-8.34-1.77-3.11-11.41-4.28-16-2.52S332,39.18,332,43.63s5.78,9.63,10.2,12.92c5,3.73,11.41,5.57,17.08,8.45,17.22,8.74,19.91,26.91,6,40.25-22.18,21.36-70,21.78-91.85-.06-3.72-3.72-4.19-11.27-4.57-17.15-.06-1,7.94-3.16,12.34-3.63C287.24,83.77,293.33,84.25,300.18,84.25Z"/><path class="cls-1" d="M74.81,94.14C50.08,92.76,32.34,91.38,7.61,90,6.35,89.56,1.35,87.56,0,87.07c2.35-.51,5.33-2.37,8-2.38,18.75-.07,37.53-.16,56.26.62,4,.16,7.83,3.87,11.74,6Z"/><path class="cls-1" d="M15.8,130.42v17.26H13.3V130.42Z"/><path class="cls-1" d="M23.38,147.68V130.42h2.73l6.19,8.73a46.76,46.76,0,0,1,3.48,5.61l0,0a68.38,68.38,0,0,1-.28-7.09v-7.22H37.9v17.26H35.37l-6.14-8.76a52.16,52.16,0,0,1-3.61-5.76l-.09,0c.15,2.18.2,4.25.2,7.12v7.38Z"/><path class="cls-1" d="M57.28,132.31H51.4v-1.89H65.72v1.89H59.81v15.37H57.28Z"/><path class="cls-1" d="M73.59,130.42v7.22H83v-7.22h2.52v17.26H83v-8.1H73.59v8.1h-2.5V130.42Z"/><path class="cls-1" d="M103,139.58H95.53v6.23h8.38v1.87H93V130.42h10.45v1.87h-8v5.45H103Z"/><path class="cls-1" d="M119.67,147.68V130.42h2.73l6.2,8.73a47.91,47.91,0,0,1,3.47,5.61l.06,0a68.23,68.23,0,0,1-.29-7.09v-7.22h2.35v17.26h-2.52l-6.14-8.76a52.29,52.29,0,0,1-3.62-5.76l-.09,0c.15,2.18.2,4.25.2,7.12v7.38Z"/><path class="cls-1" d="M151.79,139.58h-7.52v6.23h8.38v1.87H141.78V130.42h10.44v1.87h-7.95v5.45h7.52Z"/><path class="cls-1" d="M162.53,147.68l-4.91-17.26h2.65l2.29,8.73c.58,2.15,1.09,4.3,1.44,6h.05c.32-1.72.92-3.77,1.58-6l2.58-8.7h2.62l2.35,8.75c.54,2.05,1.06,4.1,1.35,5.92h.06c.4-1.89.94-3.82,1.55-6l2.55-8.7h2.55l-5.48,17.26h-2.61l-2.44-9a47.47,47.47,0,0,1-1.26-5.64h-.06a47.61,47.61,0,0,1-1.49,5.64l-2.76,9Z"/><path class="cls-1" d="M212.48,140.1c-.14-2.41-.31-5.3-.29-7.45h-.08c-.66,2-1.47,4.17-2.44,6.55l-3.42,8.37h-1.89l-3.13-8.22c-.92-2.43-1.69-4.66-2.24-6.7h-.05c-.06,2.15-.21,5-.38,7.62l-.51,7.41h-2.39L197,130.42h3.19l3.3,8.35c.8,2.12,1.46,4,1.95,5.81h.09a58,58,0,0,1,2-5.81l3.45-8.35h3.18l1.21,17.26H213Z"/><path class="cls-1" d="M225,130.42v17.26h-2.5V130.42Z"/><path class="cls-1" d="M232.56,130.42h2.49v15.39h8.27v1.87H232.56Z"/><path class="cls-1" d="M249.32,130.42h2.5v15.39h8.26v1.87H249.32Z"/><path class="cls-1" d="M276.1,139.58h-7.51v6.23H277v1.87H266.09V130.42h10.44v1.87h-7.94v5.45h7.51Z"/><path class="cls-1" d="M283.43,147.68V130.42h2.72l6.2,8.73a46.76,46.76,0,0,1,3.48,5.61l.05,0a68.38,68.38,0,0,1-.28-7.09v-7.22H298v17.26h-2.53l-6.14-8.76a52.16,52.16,0,0,1-3.61-5.76l-.09,0c.14,2.18.2,4.25.2,7.12v7.38Z"/><path class="cls-1" d="M305.53,147.68V130.42h2.73l6.2,8.73a47.91,47.91,0,0,1,3.47,5.61l.06,0a68.23,68.23,0,0,1-.29-7.09v-7.22h2.36v17.26h-2.53l-6.14-8.76a53.83,53.83,0,0,1-3.62-5.76l-.08,0c.14,2.18.2,4.25.2,7.12v7.38Z"/><path class="cls-1" d="M330.14,130.42v17.26h-2.5V130.42Z"/><path class="cls-1" d="M340.22,130.42v10.21c0,3.87,1.92,5.51,4.5,5.51,2.87,0,4.71-1.69,4.71-5.51V130.42H352v10.06c0,5.3-3.13,7.48-7.32,7.48-4,0-6.94-2-6.94-7.38V130.42Z"/><path class="cls-1" d="M375.81,140.1c-.14-2.41-.32-5.3-.29-7.45h-.08c-.66,2-1.47,4.17-2.44,6.55l-3.42,8.37h-1.89l-3.13-8.22c-.92-2.43-1.69-4.66-2.24-6.7h-.06c-.05,2.15-.2,5-.37,7.62l-.52,7.41H359l1.35-17.26h3.19l3.3,8.35c.8,2.12,1.46,4,1.95,5.81h.08a61,61,0,0,1,2-5.81l3.45-8.35h3.18l1.21,17.26H376.3Z"/><path class="cls-1" d="M466,33.11a31.3,31.3,0,0,1-10,1.82c-5.47,0-9.42-1.49-12.18-4.36s-4.26-7-4.22-11.76c.05-10.75,7.29-16.89,17.11-16.89a19.43,19.43,0,0,1,8.31,1.58l-1.42,5.86a15.54,15.54,0,0,0-7-1.39c-5.64,0-9.91,3.45-9.91,10.46,0,6.67,3.87,10.6,9.42,10.6a8.37,8.37,0,0,0,3.33-.48V21.79h-4.62V16.07H466Z"/><path class="cls-1" d="M496.91,27.06c0,3.07.09,5.57.18,7.54h-5.87l-.31-3.31h-.13a7.64,7.64,0,0,1-6.8,3.83c-4.4,0-7.64-3-7.64-10.22V11.13h6.8V23.75c0,3.41,1,5.47,3.38,5.47a3.66,3.66,0,0,0,3.37-2.54,4.32,4.32,0,0,0,.22-1.58v-14h6.8Z"/><path class="cls-1" d="M507.53.53h6.75V34.6h-6.75Z"/><path class="cls-1" d="M525.7,34.6V16.51h-2.84V11.13h2.84v-.91c0-2.83.8-6,2.75-7.87a8.42,8.42,0,0,1,6-2.35,12,12,0,0,1,3.6.48l-.27,5.61a6.83,6.83,0,0,0-2.17-.33c-2.22,0-3.16,1.87-3.16,4.17v1.2h4.36v5.38H532.5V34.6Z"/><path class="cls-1" d="M441,58.19a51.82,51.82,0,0,1,9.15-.67c4.18,0,7.16.86,9.16,2.59a9.78,9.78,0,0,1,3.2,7.49,10.77,10.77,0,0,1-2.76,7.67c-2.31,2.36-5.73,3.41-9.73,3.41a16.71,16.71,0,0,1-2.31-.14V90.1H441Zm6.71,14.69a9.88,9.88,0,0,0,2.27.19c3.6,0,5.82-2,5.82-5.28,0-3-1.91-4.75-5.29-4.75a10.43,10.43,0,0,0-2.8.29Z"/><path class="cls-1" d="M475.94,80.7c.22,3,3,4.46,6.13,4.46a17.94,17.94,0,0,0,6-1l.89,4.94a20,20,0,0,1-7.86,1.44c-7.38,0-11.6-4.61-11.6-12,0-5.95,3.42-12.52,11-12.52,7,0,9.69,5.9,9.69,11.71a18.61,18.61,0,0,1-.22,2.88Zm8-5c0-1.78-.72-4.75-3.83-4.75-2.84,0-4,2.78-4.17,4.75Z"/><path class="cls-1" d="M507,59.92v6.72h4.85V72H507v8.5c0,2.83.62,4.12,2.67,4.12a10,10,0,0,0,2-.19l0,5.52a12.46,12.46,0,0,1-4.4.62,6.74,6.74,0,0,1-5.06-2c-1.25-1.4-1.87-3.65-1.87-7V72h-2.89V66.64h2.89V61.55Z"/><path class="cls-1" d="M520.9,74.36c0-3.45-.09-5.71-.18-7.72h5.82l.23,4.32h.17c1.12-3.41,3.78-4.85,5.87-4.85a6.2,6.2,0,0,1,1.42.1v6.86a8.68,8.68,0,0,0-1.82-.19,4.4,4.4,0,0,0-4.62,3.69,9.21,9.21,0,0,0-.13,1.63V90.1H520.9Z"/><path class="cls-1" d="M564.09,78.11c0,8.59-5.65,12.52-11.47,12.52-6.35,0-11.24-4.51-11.24-12.09S546,66.11,553,66.11C559.64,66.11,564.09,71.05,564.09,78.11Zm-15.73.24c0,4,1.55,7.05,4.44,7.05,2.62,0,4.31-2.83,4.31-7.05,0-3.51-1.24-7.06-4.31-7.06C549.56,71.29,548.36,74.89,548.36,78.35Z"/><path class="cls-1" d="M589.9,89.53a15.52,15.52,0,0,1-6,1c-7,0-11.51-4.61-11.51-12,0-6.87,4.35-12.48,12.44-12.48a14.71,14.71,0,0,1,5.15.91l-1.06,5.42a8.71,8.71,0,0,0-3.78-.72c-3.55,0-5.86,2.74-5.82,6.58,0,4.32,2.67,6.57,6,6.57a9.78,9.78,0,0,0,3.87-.72Z"/><path class="cls-1" d="M598.83,56h6.75V69.42h.09a8.38,8.38,0,0,1,2.66-2.4,7.23,7.23,0,0,1,3.52-.91c4.3,0,7.59,3.21,7.59,10.27V90.1h-6.75V77.19c0-3.07-1-5.18-3.51-5.18a3.63,3.63,0,0,0-3.38,2.55,4.87,4.87,0,0,0-.22,1.63V90.1h-6.75Z"/><path class="cls-1" d="M635.26,80.7c.22,3,3,4.46,6.13,4.46a17.94,17.94,0,0,0,6-1l.89,4.94a20.06,20.06,0,0,1-7.87,1.44c-7.37,0-11.6-4.61-11.6-12,0-5.95,3.42-12.52,11-12.52,7,0,9.69,5.9,9.69,11.71a18.31,18.31,0,0,1-.23,2.88Zm8-5c0-1.78-.71-4.75-3.82-4.75-2.84,0-4,2.78-4.18,4.75Z"/><path class="cls-1" d="M658.72,74.12c0-2.92-.09-5.42-.18-7.48h5.69l.31,3.17h.13a7.42,7.42,0,0,1,6.58-3.7,6.14,6.14,0,0,1,6,4h.09a10.07,10.07,0,0,1,2.8-2.83,7.37,7.37,0,0,1,4.13-1.15c4.18,0,7.33,3.17,7.33,10.17V90.1H685V77.34c0-3.41-1-5.38-3.2-5.38a3.36,3.36,0,0,0-3.11,2.55,6.41,6.41,0,0,0-.27,1.87V90.1h-6.58V77c0-3-1-5-3.11-5a3.5,3.5,0,0,0-3.15,2.64,5.28,5.28,0,0,0-.27,1.83V90.1h-6.57Z"/><path class="cls-1" d="M709.1,60.11a3.52,3.52,0,0,1-3.64,3.65,3.67,3.67,0,0,1,0-7.34A3.52,3.52,0,0,1,709.1,60.11Zm-7,30V66.64h6.76V90.1Z"/><path class="cls-1" d="M735.8,89.53a15.52,15.52,0,0,1-6,1c-7,0-11.51-4.61-11.51-12,0-6.87,4.35-12.48,12.44-12.48a14.71,14.71,0,0,1,5.15.91l-1.06,5.42a8.71,8.71,0,0,0-3.78-.72c-3.55,0-5.86,2.74-5.82,6.58,0,4.32,2.67,6.57,6,6.57a9.78,9.78,0,0,0,3.87-.72Z"/><path class="cls-1" d="M757.26,90.1l-.4-2.35h-.14a7.57,7.57,0,0,1-6.22,2.88,6.93,6.93,0,0,1-7-7.2c0-6.09,5.07-9,12.75-9v-.34c0-1.24-.62-3-4-3a11.55,11.55,0,0,0-6,1.78L745,68.17a16.9,16.9,0,0,1,8.44-2.06c7.24,0,9.55,4.61,9.55,10.12v8.16a39.46,39.46,0,0,0,.31,5.71ZM756.46,79c-3.56,0-6.31.86-6.31,3.69a2.52,2.52,0,0,0,2.66,2.79,3.72,3.72,0,0,0,3.51-2.69,5.63,5.63,0,0,0,.14-1.25Z"/><path class="cls-1" d="M773.56,56h6.75V90.1h-6.75Z"/><path class="cls-1" d="M441.24,138.07a16.23,16.23,0,0,0,7.51,2c3.11,0,4.76-1.39,4.76-3.5s-1.43-3.17-5-4.56c-5-1.87-8.22-4.85-8.22-9.55,0-5.52,4.26-9.74,11.33-9.74a17.27,17.27,0,0,1,7.64,1.63l-1.51,5.9a13.48,13.48,0,0,0-6.27-1.53c-2.93,0-4.35,1.44-4.35,3.12,0,2.06,1.69,3,5.55,4.55,5.29,2.12,7.78,5.09,7.78,9.65,0,5.42-3.87,10-12.09,10a18.31,18.31,0,0,1-8.48-2Z"/><path class="cls-1" d="M475.5,136.2c.22,3,3,4.47,6.13,4.47a18,18,0,0,0,6-1l.88,4.94a20,20,0,0,1-7.86,1.44c-7.38,0-11.6-4.61-11.6-12,0-5.95,3.42-12.52,11-12.52,7,0,9.68,5.9,9.68,11.7a18.49,18.49,0,0,1-.22,2.88Zm7.95-5c0-1.77-.71-4.75-3.82-4.75-2.85,0-4,2.78-4.18,4.75Z"/><path class="cls-1" d="M499,129.87c0-3.46-.08-5.71-.17-7.73h5.82l.22,4.32H505c1.11-3.4,3.77-4.84,5.86-4.84a6.82,6.82,0,0,1,1.42.09v6.86a9.32,9.32,0,0,0-1.82-.19,4.41,4.41,0,0,0-4.62,3.7,9.13,9.13,0,0,0-.13,1.63v11.9H499Z"/><path class="cls-1" d="M526.85,122.14l2.94,10.9a57.5,57.5,0,0,1,1.24,5.71h.13c.36-1.92.71-3.7,1.2-5.71l2.8-10.9h7.11l-8.09,23.47h-6.75l-7.91-23.47Z"/><path class="cls-1" d="M557.55,115.62a3.51,3.51,0,0,1-3.64,3.64,3.67,3.67,0,0,1,.05-7.34A3.52,3.52,0,0,1,557.55,115.62Zm-7,30V122.14h6.75v23.47Z"/><path class="cls-1" d="M584.26,145a15.37,15.37,0,0,1-6,1.06c-7,0-11.51-4.61-11.51-12,0-6.86,4.36-12.47,12.45-12.47a14.53,14.53,0,0,1,5.15.91L583.23,128a8.69,8.69,0,0,0-3.77-.72c-3.56,0-5.87,2.74-5.82,6.57,0,4.32,2.66,6.58,6,6.58a9.73,9.73,0,0,0,3.86-.72Z"/><path class="cls-1" d="M597.89,136.2c.23,3,3,4.47,6.14,4.47a17.88,17.88,0,0,0,6-1l.89,4.94a20,20,0,0,1-7.86,1.44c-7.38,0-11.6-4.61-11.6-12,0-5.95,3.42-12.52,11-12.52,7,0,9.69,5.9,9.69,11.7a18.49,18.49,0,0,1-.22,2.88Zm8-5c0-1.77-.71-4.75-3.82-4.75-2.85,0-4,2.78-4.18,4.75Z"/><path class="cls-1" d="M621.31,139.23a12.53,12.53,0,0,0,5.82,1.77c2,0,2.88-.77,2.88-2s-.66-1.77-3.19-2.68c-4.49-1.63-6.22-4.27-6.18-7.06,0-4.36,3.46-7.67,8.84-7.67a13.66,13.66,0,0,1,6.13,1.34l-1.2,5a10,10,0,0,0-4.71-1.35c-1.64,0-2.57.72-2.57,1.92s.84,1.68,3.51,2.69c4.13,1.54,5.86,3.79,5.91,7.25,0,4.36-3.2,7.58-9.42,7.58a14.41,14.41,0,0,1-7-1.63Z"/><path class="cls-1" d="M679.29,145.61c-.63-.72-1.25-1.44-2-2.3a12.5,12.5,0,0,1-8.22,2.82c-7.24,0-10.44-4.65-10.44-9.16a10.28,10.28,0,0,1,5.69-9.26v-.19a10.25,10.25,0,0,1-2.27-6.24c0-4.08,3-8.54,9-8.54,4.62,0,8.13,2.93,8.13,7.58,0,3.26-1.78,6.05-5.91,8.3l0,.19c1.74,2.07,3.56,4.42,5,6.05A22.57,22.57,0,0,0,680.8,127h6c-.8,4.89-2.31,9.07-5,12.28,1.69,2.07,3.42,4.18,5.29,6.34Zm-5.11-6.38c-1.87-2-4.31-4.95-6.76-7.92a5.47,5.47,0,0,0-2.35,4.46,4.88,4.88,0,0,0,5,5.09A5.81,5.81,0,0,0,674.18,139.23Zm-6-18.62a7.11,7.11,0,0,0,2,4.65c2.17-1.63,3.29-2.88,3.29-4.75,0-1.53-.85-3.21-2.63-3.21S668.13,118.93,668.13,120.61Z"/><path class="cls-1" d="M713.76,119.41h-8v-6.14h23v6.14h-8.18v26.2h-6.8Z"/><path class="cls-1" d="M734.91,129.87c0-3.46-.09-5.71-.18-7.73h5.82l.22,4.32H741c1.11-3.4,3.78-4.84,5.87-4.84a6.87,6.87,0,0,1,1.42.09v6.86a9.5,9.5,0,0,0-1.82-.19,4.42,4.42,0,0,0-4.63,3.7,10.16,10.16,0,0,0-.13,1.63v11.9h-6.75Z"/><path class="cls-1" d="M777.69,111.54V138.6c0,2.64.09,5.42.18,7h-6l-.31-3.46h-.09a7.45,7.45,0,0,1-6.79,4c-5.16,0-9.29-4.74-9.29-12,0-7.92,4.53-12.47,9.73-12.47,2.67,0,4.75,1,5.73,2.63h.09V111.54Zm-6.75,20.54c0-.39-.05-.92-.09-1.3a4.16,4.16,0,0,0-4-3.6c-3.07,0-4.67,3-4.67,6.67,0,4,1.82,6.48,4.62,6.48a4,4,0,0,0,3.91-3.5,6.87,6.87,0,0,0,.18-1.68Z"/><path class="cls-1" d="M809.06,122.14c-.09,1.49-.18,3.46-.18,7v13.1c0,4.51-.84,8.21-3.29,10.56s-5.64,2.88-8.84,2.88a15.92,15.92,0,0,1-7.82-1.83l1.33-5.52a12.56,12.56,0,0,0,6.31,1.78c3.2,0,5.65-1.87,5.65-6.19v-1.54h-.09a6.79,6.79,0,0,1-5.87,3.08c-5.37,0-9.2-4.71-9.2-11.47,0-7.54,4.54-12.33,9.87-12.33a6.43,6.43,0,0,1,6,3.31H803l.22-2.79Zm-6.93,9.55a6.06,6.06,0,0,0-.14-1.34c-.48-1.92-1.77-3.22-3.64-3.22-2.44,0-4.44,2.4-4.44,6.67,0,3.51,1.6,6.24,4.44,6.24a3.75,3.75,0,0,0,3.56-3,7,7,0,0,0,.22-1.92Z"/><path class="cls-1" d="M818.26,141.72c0-2.59,1.64-4.46,4-4.46s4,1.82,4,4.46-1.6,4.41-4,4.41S818.26,144.26,818.26,141.72Z"/><path class="cls-1" d="M849.89,113.27h6.79v26.2h11.91v6.14h-18.7Z"/><path class="cls-1" d="M877.79,113.27h6.79v26.2h11.91v6.14h-18.7Z"/><path class="cls-1" d="M926,144.7a18.06,18.06,0,0,1-7.69,1.39c-10.35,0-15.68-7-15.68-16.17,0-11,7.29-17.18,16.35-17.18a16.58,16.58,0,0,1,7.38,1.44L925,120a13.79,13.79,0,0,0-5.69-1.19c-5.37,0-9.55,3.5-9.55,10.69,0,6.48,3.55,10.56,9.6,10.56a15.93,15.93,0,0,0,5.64-1Z"/></g></g></svg>