<svg xmlns="http://www.w3.org/2000/svg" viewBox="0 0 909.97 726.05"><defs><style>.cls-1{fill:#efa500;}.cls-2{font-size:14px;fill:#fff;font-family:Calibri-Bold, Calibri;font-weight:700;}.cls-3{fill:none;stroke:#b1d2ff;stroke-miterlimit:10;}</style></defs><title>Asset 3</title><g id="Layer_2" data-name="Layer 2"><g id="Layer_1-2" data-name="Layer 1"><path class="cls-1" d="M493.26,50.4A50.4,50.4,0,1,1,442.86,0a50.41,50.41,0,0,1,50.4,50.4"/><path class="cls-1" d="M111,210.14a50.4,50.4,0,1,1-50.4-50.4,50.4,50.4,0,0,1,50.4,50.4"/><path class="cls-1" d="M680,210.14a50.4,50.4,0,1,1-50.4-50.4,50.4,50.4,0,0,1,50.4,50.4"/><path class="cls-1" d="M106.76,364.1a50.4,50.4,0,1,1-50.4-50.4,50.41,50.41,0,0,1,50.4,50.4"/><path class="cls-1" d="M493.26,210.14a50.4,50.4,0,1,1-50.4-50.4,50.4,50.4,0,0,1,50.4,50.4"/><path class="cls-1" d="M605,364.1a50.4,50.4,0,1,1-50.4-50.4A50.4,50.4,0,0,1,605,364.1"/><path class="cls-1" d="M287.47,210.14a50.4,50.4,0,1,1-50.4-50.4,50.39,50.39,0,0,1,50.4,50.4"/><path class="cls-1" d="M875.5,210.14a50.4,50.4,0,1,1-50.4-50.4,50.39,50.39,0,0,1,50.4,50.4"/><path class="cls-1" d="M372.48,365.5a50.4,50.4,0,1,1-50.4-50.4,50.4,50.4,0,0,1,50.4,50.4"/><path class="cls-1" d="M879.91,364.1a50.4,50.4,0,1,1-50.4-50.4,50.41,50.41,0,0,1,50.4,50.4"/><path class="cls-1" d="M302.3,518.26a50.4,50.4,0,1,1-50.4-50.4,50.39,50.39,0,0,1,50.4,50.4"/><path class="cls-1" d="M475.26,516.37a50.4,50.4,0,1,1-50.4-50.4,50.4,50.4,0,0,1,50.4,50.4"/><path class="cls-1" d="M100.8,672.63a50.4,50.4,0,1,1-50.4-50.4,50.39,50.39,0,0,1,50.4,50.4"/><path class="cls-1" d="M252,673.66a50.4,50.4,0,1,1-50.4-50.39A50.4,50.4,0,0,1,252,673.66"/><path class="cls-1" d="M421.43,675.65a50.4,50.4,0,1,1-50.4-50.4,50.41,50.41,0,0,1,50.4,50.4"/><path class="cls-1" d="M590.82,674.2a50.4,50.4,0,1,1-50.4-50.4,50.4,50.4,0,0,1,50.4,50.4"/><path class="cls-1" d="M910,673.3a50.4,50.4,0,1,1-50.4-50.4A50.39,50.39,0,0,1,910,673.3"/><path class="cls-1" d="M760.21,673a50.4,50.4,0,1,1-50.4-50.4,50.41,50.41,0,0,1,50.4,50.4"/><text class="cls-2" transform="translate(405.08 54.4)">Management</text><text class="cls-2" transform="translate(48.51 204.74)">HSE</text><text class="cls-2" transform="translate(23.55 222.74)">Department</text><text class="cls-2" transform="translate(607.66 207.85)">QA/QC</text><text class="cls-2" transform="translate(594.61 225.85)">Depatment</text><text class="cls-2" transform="translate(24.48 342.62)">Commercial</text><text class="cls-2" transform="translate(51.33 358.22)">&amp;</text><text class="cls-2" transform="translate(33.26 373.82)">Business</text><text class="cls-2" transform="translate(20.54 389.42)">Developemnt</text><text class="cls-2" transform="translate(419.53 198.72)">Finance</text><text class="cls-2" transform="translate(437.83 216.72)">&amp;</text><text class="cls-2" transform="translate(415.33 234.72)">Accounts</text><text class="cls-2" transform="translate(541 341.7)">Sales</text><text class="cls-2" transform="translate(549.81 357.3)">&amp;</text><text class="cls-2" transform="translate(520.12 372.9)">Procurement</text><text class="cls-2" transform="translate(522.4 388.5)">Department</text><text class="cls-2" transform="translate(192.37 200.74)">Administraton</text><text class="cls-2" transform="translate(210.99 218.74)">Personal</text><text class="cls-2" transform="translate(198.52 236.74)">Omanisaton</text><text class="cls-2" transform="translate(811.46 196.74)">Plant</text><text class="cls-2" transform="translate(790.42 212.34)">&amp; Equipment</text><text class="cls-2" transform="translate(790.32 227.94)">Maintenance</text><text class="cls-2" transform="translate(306.41 351.1)">Stores</text><text class="cls-2" transform="translate(318.33 366.7)">&amp;</text><text class="cls-2" transform="translate(284.07 382.3)">Local purchase</text><text class="cls-2" transform="translate(806.81 361.28)">Contacts</text><text class="cls-2" transform="translate(797.74 376.88)">Department</text><text class="cls-2" transform="translate(228.59 503.86)">Technical</text><text class="cls-2" transform="translate(239.34 519.46)">Sales</text><text class="cls-2" transform="translate(212.86 535.06)">Representaton</text><text class="cls-2" transform="translate(402.59 510.97)">Project </text><text class="cls-2" transform="translate(386.18 528.97)">Procurement</text><text class="cls-2" transform="translate(39.51 667.23)">EPC</text><text class="cls-2" transform="translate(22.26 685.23)">Contracts</text><text class="cls-2" transform="translate(179.67 651.26)">CMEI &amp;</text><text class="cls-2" transform="translate(178.26 669.26)">Pipeline</text><text class="cls-2" transform="translate(160.71 687.26)">Constructons</text><text class="cls-2" transform="translate(173.51 705.26)">Contracts</text><text class="cls-2" transform="translate(352.66 651.25)">Road &amp;</text><text class="cls-2" transform="translate(355.69 666.85)">Heavy</text><text class="cls-2" transform="translate(360.99 682.45)">Civil</text><text class="cls-2" transform="translate(335.64 698.05)">Constructons</text><text class="cls-2" transform="translate(505.15 669.79)">Infrastructure</text><text class="cls-2" transform="translate(520.16 685.39)">Projects</text><text class="cls-2" transform="translate(818.88 669.9)">Environmental </text><text class="cls-2" transform="translate(836.93 685.5)">Services</text><text class="cls-2" transform="translate(683.8 653.62)">Pipeline &amp;</text><text class="cls-2" transform="translate(688.22 669.22)">Facilites</text><text class="cls-2" transform="translate(676.04 684.82)">Maintenance</text><text class="cls-2" transform="translate(689.17 700.42)">Services</text><polyline class="cls-3" points="60.61 159.74 62.05 50.4 392.45 50.4"/><line class="cls-3" x1="442.86" y1="100.8" x2="442.86" y2="159.74"/><polyline class="cls-3" points="629.59 159.74 629.59 50.4 493.25 50.4"/><polyline class="cls-3" points="825.1 159.74 825.1 50.4 629.59 50.4"/><line class="cls-3" x1="237.07" y1="159.74" x2="237.07" y2="50.4"/><polyline class="cls-3" points="56.36 313.7 56.36 281.84 825.1 281.84 825.1 313.7"/><polyline class="cls-3" points="554.56 313.7 554.56 281.84 554.56 50.4"/><line class="cls-3" x1="322.08" y1="315.1" x2="322.08" y2="281.84"/><polyline class="cls-3" points="251.9 467.86 252.04 435.92 403.97 435.92 424.86 435.92 424.86 465.97"/><polyline class="cls-3" points="554.56 414.5 392.46 414.5 392.46 435.92"/><polyline class="cls-3" points="50.4 622.23 49.88 582.8 860.83 582.8 859.57 622.9"/><line class="cls-3" x1="201.64" y1="623.26" x2="201.64" y2="582.8"/><line class="cls-3" x1="371.03" y1="625.25" x2="371.03" y2="582.8"/><line class="cls-3" x1="540.42" y1="623.79" x2="540.42" y2="582.8"/><line class="cls-3" x1="709.81" y1="622.62" x2="709.81" y2="582.8"/><polyline class="cls-3" points="590.82 582.8 590.82 477.68 829.51 477.68 829.51 414.5"/></g></g></svg>