<svg xmlns="http://www.w3.org/2000/svg" viewBox="0 0 593.36 892.03"><defs><style>.cls-1{fill:#b1d2ff;}.cls-2{font-size:15px;}.cls-2,.cls-6{fill:#fff;font-family:Calibri-Light, Calibri;font-weight:300;}.cls-3{letter-spacing:-0.01em;}.cls-4{letter-spacing:-0.01em;}.cls-5{letter-spacing:0em;}.cls-6{font-size:13px;}.cls-7{letter-spacing:-0.01em;}.cls-8{letter-spacing:0em;}.cls-9{letter-spacing:-0.02em;}.cls-10{letter-spacing:-0.01em;}.cls-11{letter-spacing:-0.02em;}.cls-12{letter-spacing:-0.02em;}.cls-13{letter-spacing:0em;}.cls-14{letter-spacing:0.01em;}.cls-15{letter-spacing:-0.03em;}.cls-16{letter-spacing:-0.09em;}.cls-17{fill:none;stroke:#b1d2ff;stroke-miterlimit:10;}</style></defs><g id="Layer_2" data-name="Layer 2"><g id="Layer_1-2" data-name="Layer 1"><circle class="cls-1" cx="50.4" cy="300.92" r="50.4"/><text class="cls-2" transform="translate(12.63 304.92)">Mana<tspan class="cls-3" x="34.58" y="0">g</tspan><tspan x="41.51" y="0">eme</tspan><tspan class="cls-4" x="68.2" y="0">n</tspan><tspan class="cls-5" x="75.84" y="0">t</tspan></text><circle class="cls-1" cx="209.92" cy="50.4" r="50.4" transform="translate(25.85 163.2) rotate(-45)"/><text class="cls-2" transform="translate(197.82 45)">HSE<tspan x="-24.96" y="18">Departme</tspan><tspan class="cls-4" x="35.79" y="18">n</tspan><tspan x="43.44" y="18">t</tspan></text><circle class="cls-1" cx="356.73" cy="113.4" r="50.4"/><text class="cls-2" transform="translate(334.81 111.11)">QA/QC<tspan x="-13.06" y="18">Dep</tspan><tspan class="cls-4" x="11.25" y="18">a</tspan><tspan x="18.17" y="18">tme</tspan><tspan class="cls-4" x="42.37" y="18">n</tspan><tspan x="50.02" y="18">t</tspan></text><circle class="cls-1" cx="213.18" cy="300.92" r="50.4"/><text class="cls-6" transform="translate(181.3 279.44)">Comme<tspan class="cls-7" x="40.73" y="0">r</tspan><tspan x="45.02" y="0">cial</tspan><tspan x="26.85" y="15.6">&amp;</tspan><tspan x="8.78" y="31.2">Business</tspan><tspan x="-3.94" y="46.8">D</tspan><tspan class="cls-8" x="3.95" y="46.8">e</tspan><tspan class="cls-4" x="10.31" y="46.8">v</tspan><tspan x="15.91" y="46.8">elopem</tspan><tspan class="cls-4" x="55.44" y="46.8">n</tspan><tspan x="62.07" y="46.8">t</tspan></text><circle class="cls-1" cx="220.36" cy="574.64" r="50.4"/><text class="cls-2" transform="translate(197.04 563.21)">Finance<tspan x="18.3" y="18">&amp;</tspan><tspan x="-4.2" y="36">Ac</tspan><tspan class="cls-4" x="10.63" y="36">c</tspan><tspan x="16.86" y="36">ou</tspan><tspan class="cls-4" x="32.48" y="36">n</tspan><tspan x="40.12" y="36">ts</tspan></text><circle class="cls-1" cx="363.75" cy="379.09" r="50.4"/><text class="cls-6" transform="translate(350.19 356.69)">Sales<tspan x="8.81" y="15.6">&amp;</tspan><tspan class="cls-4" x="-20.88" y="31.2">P</tspan><tspan class="cls-9" x="-14.41" y="31.2">r</tspan><tspan x="-10.18" y="31.2">ocu</tspan><tspan class="cls-7" x="8.88" y="31.2">r</tspan><tspan x="13.17" y="31.2">eme</tspan><tspan class="cls-4" x="36.31" y="31.2">n</tspan><tspan x="42.93" y="31.2">t</tspan><tspan x="-18.61" y="46.8">Departme</tspan><tspan class="cls-4" x="34.04" y="46.8">n</tspan><tspan x="40.66" y="46.8">t</tspan></text><circle class="cls-1" cx="213.18" cy="172.18" r="50.4"/><text class="cls-2" transform="translate(168.48 162.78)">Admini<tspan class="cls-10" x="42.52" y="0">s</tspan><tspan x="48.14" y="0">t</tspan><tspan class="cls-9" x="53.07" y="0">r</tspan><tspan class="cls-4" x="57.95" y="0">a</tspan><tspan x="64.86" y="0">tion</tspan><tspan class="cls-11" x="18.62" y="18">P</tspan><tspan x="25.91" y="18">e</tspan><tspan class="cls-9" x="33.32" y="18">r</tspan><tspan x="38.2" y="18">sonal</tspan><tspan x="6.15" y="36">Omanis</tspan><tspan class="cls-4" x="51.8" y="36">a</tspan><tspan x="58.71" y="36">tion</tspan></text><circle class="cls-1" cx="356.73" cy="245.8" r="50.4"/><text class="cls-6" transform="translate(343.09 232.39)">Pla<tspan class="cls-4" x="15.59" y="0">n</tspan><tspan x="22.22" y="0">t</tspan><tspan x="-21.03" y="15.6">&amp; </tspan><tspan class="cls-7" x="-9.38" y="15.6">E</tspan><tspan x="-3.22" y="15.6">quipme</tspan><tspan class="cls-4" x="36.62" y="15.6">n</tspan><tspan x="43.25" y="15.6">t</tspan><tspan x="-21.13" y="31.2">Mai</tspan><tspan class="cls-4" x="-1.16" y="31.2">nt</tspan><tspan x="9.61" y="31.2">enance</tspan></text><circle class="cls-1" cx="216.28" cy="436.29" r="50.4"/><text class="cls-6" transform="translate(200.6 421.89)">S<tspan class="cls-4" x="5.88" y="0">t</tspan><tspan x="10.03" y="0">o</tspan><tspan class="cls-7" x="16.81" y="0">r</tspan><tspan x="21.1" y="0">es</tspan><tspan x="11.92" y="15.6">&amp;</tspan><tspan x="-22.33" y="31.2">Lo</tspan><tspan class="cls-4" x="-10.1" y="31.2">c</tspan><tspan x="-4.7" y="31.2">al pu</tspan><tspan class="cls-7" x="20.73" y="31.2">r</tspan><tspan x="25.03" y="31.2">chase</tspan></text><circle class="cls-1" cx="369.13" cy="522.35" r="50.4"/><text class="cls-6" transform="translate(346.43 519.53)">Co<tspan class="cls-4" x="13.74" y="0">n</tspan><tspan class="cls-7" x="20.36" y="0">t</tspan><tspan x="24.44" y="0">acts</tspan><tspan x="-9.08" y="15.6">Departme</tspan><tspan class="cls-4" x="43.57" y="15.6">n</tspan><tspan x="50.2" y="15.6">t</tspan></text><circle class="cls-1" cx="222.02" cy="719.11" r="50.4"/><text class="cls-2" transform="translate(211.13 713.71)">EPC<tspan x="-17.25" y="18">Co</tspan><tspan class="cls-4" x="-1.4" y="18">n</tspan><tspan x="6.25" y="18">t</tspan><tspan class="cls-9" x="11.18" y="18">r</tspan><tspan x="16.06" y="18">acts</tspan></text><circle class="cls-1" cx="373.26" cy="720.14" r="50.4"/><text class="cls-2" transform="translate(351.29 697.74)">CMEI &amp;<tspan x="-1.41" y="18">Pipeline</tspan><tspan x="-18.97" y="36">Con</tspan><tspan class="cls-10" x="4.67" y="36">s</tspan><tspan x="10.29" y="36">tructions</tspan><tspan x="-6.17" y="54">Co</tspan><tspan class="cls-4" x="9.68" y="54">n</tspan><tspan x="17.33" y="54">t</tspan><tspan class="cls-9" x="22.25" y="54">r</tspan><tspan x="27.13" y="54">acts</tspan></text><circle class="cls-1" cx="542.65" cy="722.12" r="50.4"/><text class="cls-6" transform="translate(524.28 697.72)"><tspan class="cls-11">R</tspan><tspan x="6.63" y="0">oad &amp;</tspan><tspan x="3.02" y="15.6">He</tspan><tspan class="cls-12" x="17.5" y="15.6">a</tspan><tspan class="cls-13" x="23.39" y="15.6">v</tspan><tspan x="29.18" y="15.6">y</tspan><tspan x="8.33" y="31.2">Civil</tspan><tspan x="-17.03" y="46.8">Con</tspan><tspan class="cls-10" x="3.46" y="46.8">s</tspan><tspan x="8.33" y="46.8">tructions</tspan></text><circle class="cls-1" cx="222.02" cy="841.63" r="50.4"/><text class="cls-6" transform="translate(186.75 837.23)">I<tspan class="cls-8" x="3.17" y="0">n</tspan><tspan x="9.86" y="0">f</tspan><tspan class="cls-9" x="13.75" y="0">r</tspan><tspan x="17.98" y="0">a</tspan><tspan class="cls-10" x="24.1" y="0">s</tspan><tspan x="28.96" y="0">tructu</tspan><tspan class="cls-7" x="61.03" y="0">r</tspan><tspan x="65.32" y="0">e</tspan><tspan class="cls-4" x="15.01" y="15.6">P</tspan><tspan class="cls-9" x="21.48" y="15.6">r</tspan><tspan x="25.71" y="15.6">ojects</tspan></text><circle class="cls-1" cx="542.96" cy="841.63" r="50.4"/><text class="cls-6" transform="translate(504.27 837.23)">E<tspan class="cls-12" x="6.35" y="0">n</tspan><tspan x="12.89" y="0">vi</tspan><tspan class="cls-9" x="21.47" y="0">r</tspan><tspan x="25.7" y="0">onme</tspan><tspan class="cls-4" x="55.94" y="0">n</tspan><tspan class="cls-7" x="62.57" y="0">t</tspan><tspan x="66.65" y="0">al </tspan><tspan x="18.05" y="15.6">Se</tspan><tspan class="cls-14" x="30.35" y="15.6">r</tspan><tspan x="34.96" y="15.6">vices</tspan></text><circle class="cls-1" cx="378.34" cy="841.63" r="50.4"/><text class="cls-6" transform="translate(352.33 822.23)">Pipeline &amp;<tspan class="cls-15" x="4.42" y="15.6">F</tspan><tspan x="10.05" y="15.6">acilities</tspan><tspan x="-7.77" y="31.2">Mai</tspan><tspan class="cls-4" x="12.2" y="31.2">nt</tspan><tspan x="22.98" y="31.2">enance</tspan><tspan x="5.36" y="46.8">Se</tspan><tspan class="cls-14" x="17.67" y="46.8">r</tspan><tspan x="22.28" y="46.8">vices</tspan></text><circle class="cls-1" cx="535.62" cy="403.86" r="50.4"/><text class="cls-6" transform="translate(512.14 388.42)"><tspan class="cls-16">T</tspan><tspan x="5.11" y="0">echni</tspan><tspan class="cls-4" x="33.44" y="0">c</tspan><tspan x="38.84" y="0">al</tspan><tspan x="10.75" y="15.6">Sales</tspan><tspan class="cls-9" x="-15.73" y="31.2">R</tspan><tspan x="-9.06" y="31.2">ep</tspan><tspan class="cls-7" x="4.12" y="31.2">r</tspan><tspan x="8.41" y="31.2">ese</tspan><tspan class="cls-4" x="26.28" y="31.2">n</tspan><tspan class="cls-7" x="32.91" y="31.2">t</tspan><tspan class="cls-4" x="36.99" y="31.2">a</tspan><tspan x="42.98" y="31.2">tion</tspan></text><circle class="cls-1" cx="533.72" cy="230.91" r="50.4"/><text class="cls-2" transform="translate(510.35 225.42)"><tspan class="cls-4">P</tspan><tspan class="cls-9" x="7.47" y="0">r</tspan><tspan x="12.35" y="0">oject </tspan><tspan class="cls-4" x="-16.41" y="18">P</tspan><tspan class="cls-9" x="-8.94" y="18">r</tspan><tspan x="-4.06" y="18">ocu</tspan><tspan class="cls-7" x="17.93" y="18">r</tspan><tspan x="22.88" y="18">eme</tspan><tspan class="cls-4" x="49.57" y="18">n</tspan><tspan x="57.22" y="18">t</tspan></text><polyline class="cls-17" points="159.53 50.4 100.8 50.4 100.8 172.18 100.8 300.92 100.8 574.64 169.96 574.64"/><line class="cls-17" x1="162.78" y1="172.18" x2="100.8" y2="172.18"/><line class="cls-17" x1="162.78" y1="300.92" x2="100.8" y2="300.92"/><line class="cls-17" x1="165.88" y1="436.29" x2="100.8" y2="436.29"/><polyline class="cls-17" points="100.8 236.46 277.14 236.46 277.14 379.09 277.14 526.92 318.73 526.92"/><line class="cls-17" x1="313.35" y1="379.09" x2="277.14" y2="379.09"/><line class="cls-17" x1="277.14" y1="245.8" x2="306.33" y2="245.8"/><polyline class="cls-17" points="306.33 119.63 306.33 113.4 277.14 113.4 277.14 236.46"/><polyline class="cls-17" points="414.15 379.09 456.42 379.09 456.42 233.94 483.32 233.94"/><polyline class="cls-17" points="485.21 403.86 456.42 403.86 456.42 379.09"/><polyline class="cls-17" points="369.13 572.75 369.13 636.74 222.02 636.74 222.02 668.71"/><polyline class="cls-17" points="542.65 671.72 542.65 634.58 369.13 634.58 369.13 668.71"/><polyline class="cls-17" points="542.96 791.23 542.65 779.3 222.02 779.3 222.02 791.23"/><line class="cls-17" x1="378.34" y1="791.23" x2="378.34" y2="779.3"/><line class="cls-17" x1="295.58" y1="779.3" x2="295.58" y2="634.58"/></g></g></svg>